<?xml version="1.0" encoding="UTF-8"?>
<!DOCTYPE svg PUBLIC "-//W3C//DTD SVG 1.1//EN" "http://www.w3.org/Graphics/SVG/1.1/DTD/svg11.dtd">
<svg xmlns="http://www.w3.org/2000/svg" version="1.1" width="666px" height="375px" style="shape-rendering:geometricPrecision; text-rendering:geometricPrecision; image-rendering:optimizeQuality; fill-rule:evenodd; clip-rule:evenodd" xmlns:xlink="http://www.w3.org/1999/xlink">
<g><path style="opacity:1" fill="#4e4e4e" d="M 337.5,54.5 C 373.482,77.4736 409.482,100.474 445.5,123.5C 446.5,142.822 446.833,162.155 446.5,181.5C 444.435,181.517 442.435,181.85 440.5,182.5C 433.924,181.587 427.591,179.753 421.5,177C 412.091,171.308 402.758,166.308 393.5,162C 392.978,161.439 392.645,160.772 392.5,160C 393.525,157.7 394.525,155.533 395.5,153.5C 396.29,152.599 397.29,151.932 398.5,151.5C 400.606,154.11 402.94,156.61 405.5,159C 417.463,165.315 429.13,172.149 440.5,179.5C 441.723,180.614 443.056,180.781 444.5,180C 439.581,176.958 434.748,173.791 430,170.5C 427.285,165.51 424.118,160.844 420.5,156.5C 421.855,155.325 421.688,154.325 420,153.5C 409.312,140.599 398.312,126.599 387,111.5C 375.11,98.3061 363.777,84.9728 353,71.5C 353.654,72.6956 354.154,72.6956 354.5,71.5C 348.438,67.8156 342.772,63.1489 337.5,57.5C 337.5,56.5 337.5,55.5 337.5,54.5 Z"/></g>
<g><path style="opacity:1" fill="#484848" d="M 337.5,57.5 C 342.772,63.1489 348.438,67.8156 354.5,71.5C 354.154,72.6956 353.654,72.6956 353,71.5C 363.777,84.9728 375.11,98.3061 387,111.5C 398.312,126.599 409.312,140.599 420,153.5C 421.688,154.325 421.855,155.325 420.5,156.5C 424.118,160.844 427.285,165.51 430,170.5C 434.748,173.791 439.581,176.958 444.5,180C 443.056,180.781 441.723,180.614 440.5,179.5C 429.13,172.149 417.463,165.315 405.5,159C 402.94,156.61 400.606,154.11 398.5,151.5C 381.672,139.919 364.672,128.585 347.5,117.5C 350.199,117.466 352.699,118.133 355,119.5C 355.333,119.167 355.667,118.833 356,118.5C 358.078,120.385 360.245,121.051 362.5,120.5C 354.359,99.4076 346.026,78.4076 337.5,57.5 Z"/></g>
<g><path style="opacity:1" fill="#a3a3a3" d="M 446.5,181.5 C 446.833,162.155 446.5,142.822 445.5,123.5C 409.482,100.474 373.482,77.4736 337.5,54.5C 334.304,53.2083 331.304,53.7083 328.5,56C 292.271,77.2743 256.271,98.7743 220.5,120.5C 218.513,139.137 217.846,158.137 218.5,177.5C 217.338,158.338 217.171,139.004 218,119.5C 256.625,96.4389 295.458,73.7723 334.5,51.5C 372.133,74.6523 409.466,98.319 446.5,122.5C 447.828,142.329 447.828,161.996 446.5,181.5 Z M 335.5,109.5 C 339.119,112.65 343.119,115.316 347.5,117.5C 364.672,128.585 381.672,139.919 398.5,151.5C 397.29,151.932 396.29,152.599 395.5,153.5C 392.622,154.37 389.955,155.703 387.5,157.5C 381.149,153.473 374.816,149.473 368.5,145.5C 366.408,141.453 363.075,139.453 358.5,139.5C 350.401,133.941 342.068,128.608 333.5,123.5C 328.139,126.512 322.806,129.512 317.5,132.5C 315.284,130.293 313.118,130.293 311,132.5C 310.667,132.167 310.333,131.833 310,131.5C 310.611,128.967 311.111,126.3 311.5,123.5C 316.701,120.737 321.701,117.737 326.5,114.5C 329.661,113.087 332.661,111.42 335.5,109.5 Z M 304.5,140.5 C 302.148,139.457 301.981,138.124 304,136.5C 304.49,137.793 304.657,139.127 304.5,140.5 Z M 300.5,142.5 C 297.86,141.206 297.86,139.873 300.5,138.5C 301.292,139.7 301.292,141.033 300.5,142.5 Z M 294.5,140.5 C 297.797,140.329 298.131,140.995 295.5,142.5C 294.702,142.043 294.369,141.376 294.5,140.5 Z"/></g>
<g><path style="opacity:1" fill="#3b3b3b" d="M 337.5,54.5 C 337.5,55.5 337.5,56.5 337.5,57.5C 346.026,78.4076 354.359,99.4076 362.5,120.5C 360.245,121.051 358.078,120.385 356,118.5C 355.667,118.833 355.333,119.167 355,119.5C 352.699,118.133 350.199,117.466 347.5,117.5C 343.119,115.316 339.119,112.65 335.5,109.5C 336.391,108.739 337.058,107.739 337.5,106.5C 336.207,100.974 336.207,95.4743 337.5,90C 336.678,78.576 336.178,67.076 336,55.5C 335.586,55.0426 335.086,54.7093 334.5,54.5C 330.519,72.8131 326.685,90.8131 323,108.5C 321.668,109.162 320.502,110.328 319.5,112C 321.947,111.948 324.28,112.782 326.5,114.5C 321.701,117.737 316.701,120.737 311.5,123.5C 302.9,128.11 294.566,133.11 286.5,138.5C 284.351,139.736 282.018,140.736 279.5,141.5C 278.577,140.697 277.577,140.53 276.5,141C 266.916,146.708 257.416,152.541 248,158.5C 247.586,158.043 247.086,157.709 246.5,157.5C 238.555,162.385 230.722,167.385 223,172.5C 222.085,171.672 221.419,170.672 221,169.5C 220.833,166.833 220.667,164.167 220.5,161.5C 221.742,147.817 221.742,134.151 220.5,120.5C 256.271,98.7743 292.271,77.2743 328.5,56C 331.304,53.7083 334.304,53.2083 337.5,54.5 Z"/></g>
<g><path style="opacity:0.999" fill="#2e2e2e" d="M 335.5,109.5 C 332.661,111.42 329.661,113.087 326.5,114.5C 324.28,112.782 321.947,111.948 319.5,112C 320.502,110.328 321.668,109.162 323,108.5C 326.685,90.8131 330.519,72.8131 334.5,54.5C 335.086,54.7093 335.586,55.0426 336,55.5C 336.178,67.076 336.678,78.576 337.5,90C 336.207,95.4743 336.207,100.974 337.5,106.5C 337.058,107.739 336.391,108.739 335.5,109.5 Z"/></g>
<g><path style="opacity:0.991" fill="#4e4e4e" d="M 220.5,120.5 C 221.742,134.151 221.742,147.817 220.5,161.5C 220.667,164.167 220.833,166.833 221,169.5C 221.419,170.672 222.085,171.672 223,172.5C 230.722,167.385 238.555,162.385 246.5,157.5C 247.086,157.709 247.586,158.043 248,158.5C 257.416,152.541 266.916,146.708 276.5,141C 277.577,140.53 278.577,140.697 279.5,141.5C 259.669,154.253 239.336,166.253 218.5,177.5C 217.846,158.137 218.513,139.137 220.5,120.5 Z"/></g>
<g><path style="opacity:0.032" fill="#f9f9f9" d="M 311.5,123.5 C 311.111,126.3 310.611,128.967 310,131.5C 310.333,131.833 310.667,132.167 311,132.5C 313.118,130.293 315.284,130.293 317.5,132.5C 313.677,135.916 309.343,138.582 304.5,140.5C 303.486,141.674 302.153,142.34 300.5,142.5C 296.341,145.747 292.008,148.747 287.5,151.5C 285.912,149.887 284.912,147.887 284.5,145.5C 285.167,145.5 285.5,145.167 285.5,144.5C 286.315,145.429 287.148,146.429 288,147.5C 288.576,144.876 289.91,144.209 292,145.5C 292.5,144.5 293,143.5 293.5,142.5C 293.043,141.702 292.376,141.369 291.5,141.5C 291.918,140.778 292.584,140.278 293.5,140C 292.667,139.167 291.833,138.333 291,137.5C 290.581,138.672 289.915,139.672 289,140.5C 288.583,139.244 287.75,138.577 286.5,138.5C 294.566,133.11 302.9,128.11 311.5,123.5 Z M 304.5,140.5 C 304.657,139.127 304.49,137.793 304,136.5C 301.981,138.124 302.148,139.457 304.5,140.5 Z M 300.5,142.5 C 301.292,141.033 301.292,139.7 300.5,138.5C 297.86,139.873 297.86,141.206 300.5,142.5 Z M 294.5,140.5 C 294.369,141.376 294.702,142.043 295.5,142.5C 298.131,140.995 297.797,140.329 294.5,140.5 Z"/></g>
<g><path style="opacity:0.996" fill="#505050" d="M 358.5,139.5 C 361.566,141.89 364.9,143.89 368.5,145.5C 368.657,146.873 368.49,148.207 368,149.5C 366.333,148.167 364.667,148.167 363,149.5C 359.106,145.706 354.772,143.706 350,143.5C 344.333,142.167 338.667,140.833 333,139.5C 320.82,141.729 309.487,146.063 299,152.5C 298.667,152.167 298.333,151.833 298,151.5C 295.741,152.38 293.575,153.38 291.5,154.5C 289.77,153.974 288.436,152.974 287.5,151.5C 292.008,148.747 296.341,145.747 300.5,142.5C 302.153,142.34 303.486,141.674 304.5,140.5C 309.343,138.582 313.677,135.916 317.5,132.5C 322.806,129.512 328.139,126.512 333.5,123.5C 342.068,128.608 350.401,133.941 358.5,139.5 Z"/></g>
<g><path style="opacity:0.258" fill="#ededed" d="M 358.5,139.5 C 363.075,139.453 366.408,141.453 368.5,145.5C 364.9,143.89 361.566,141.89 358.5,139.5 Z"/></g>
<g><path style="opacity:0.044" fill="#fefffe" d="M 285.5,144.5 C 284.833,144.5 284.5,144.833 284.5,145.5C 283.427,144.749 283.26,143.749 284,142.5C 286.427,141.433 286.927,142.1 285.5,144.5 Z"/></g>
<g><path style="opacity:0.004" fill="#fefffe" d="M 289.5,142.5 C 289.842,141.662 290.508,141.328 291.5,141.5C 291.158,142.338 290.492,142.672 289.5,142.5 Z"/></g>
<g><path style="opacity:0.004" fill="#fefffe" d="M 289.5,142.5 C 288.833,143.167 288.833,143.167 289.5,142.5 Z"/></g>
<g><path style="opacity:1" fill="#595959" d="M 368.5,145.5 C 374.816,149.473 381.149,153.473 387.5,157.5C 389.955,155.703 392.622,154.37 395.5,153.5C 394.525,155.533 393.525,157.7 392.5,160C 392.645,160.772 392.978,161.439 393.5,162C 402.758,166.308 412.091,171.308 421.5,177C 427.591,179.753 433.924,181.587 440.5,182.5C 436.851,183.95 433.184,185.617 429.5,187.5C 426.515,187.045 423.682,187.045 421,187.5C 399.74,178.967 378.906,169.467 358.5,159C 351.167,156.333 343.833,153.667 336.5,151C 326.29,150.622 316.79,153.122 308,158.5C 307.667,158.167 307.333,157.833 307,157.5C 305.266,158.249 303.433,158.749 301.5,159C 302.712,160.107 302.379,160.607 300.5,160.5C 300.027,159.094 299.027,158.427 297.5,158.5C 295.205,157.525 293.205,156.192 291.5,154.5C 293.575,153.38 295.741,152.38 298,151.5C 298.333,151.833 298.667,152.167 299,152.5C 309.487,146.063 320.82,141.729 333,139.5C 338.667,140.833 344.333,142.167 350,143.5C 354.772,143.706 359.106,145.706 363,149.5C 364.667,148.167 366.333,148.167 368,149.5C 368.49,148.207 368.657,146.873 368.5,145.5 Z"/></g>
<g><path style="opacity:1" fill="#646464" d="M 440.5,182.5 C 442.435,181.85 444.435,181.517 446.5,181.5C 442.376,185.281 437.709,188.281 432.5,190.5C 432.12,189.867 431.787,189.2 431.5,188.5C 424.623,193.407 417.123,195.741 409,195.5C 408.667,196.167 408.333,196.833 408,197.5C 395.626,191.759 383.292,186.092 371,180.5C 358.291,173.78 344.791,169.446 330.5,167.5C 328.366,167.515 326.366,168.015 324.5,169C 334.289,175.899 343.456,182.732 352,189.5C 352.41,190.901 352.91,192.234 353.5,193.5C 340.5,185.5 327.5,177.5 314.5,169.5C 309.797,166.486 305.13,163.486 300.5,160.5C 302.379,160.607 302.712,160.107 301.5,159C 303.433,158.749 305.266,158.249 307,157.5C 307.333,157.833 307.667,158.167 308,158.5C 316.79,153.122 326.29,150.622 336.5,151C 343.833,153.667 351.167,156.333 358.5,159C 378.906,169.467 399.74,178.967 421,187.5C 423.682,187.045 426.515,187.045 429.5,187.5C 433.184,185.617 436.851,183.95 440.5,182.5 Z"/></g>
<g><path style="opacity:0.294" fill="#dddddd" d="M 297.5,158.5 C 299.027,158.427 300.027,159.094 300.5,160.5C 298.973,160.573 297.973,159.906 297.5,158.5 Z"/></g>
<g><path style="opacity:1" fill="#929292" d="M 285.5,160.5 C 296.167,167.167 306.833,173.833 317.5,180.5C 317.5,180.833 317.5,181.167 317.5,181.5C 317.062,181.435 316.728,181.601 316.5,182C 318.189,184.414 319.689,186.914 321,189.5C 326.038,191.085 330.205,193.752 333.5,197.5C 332.127,197.657 330.793,197.49 329.5,197C 321.849,192.121 314.516,186.788 307.5,181C 303.259,178.314 298.593,176.814 293.5,176.5C 281.356,179.911 269.189,183.244 257,186.5C 256.439,185.978 255.772,185.645 255,185.5C 250.406,186.343 245.906,187.176 241.5,188C 240.549,187.282 240.383,186.449 241,185.5C 249.986,179.601 258.819,173.601 267.5,167.5C 270.831,165.278 274.165,162.778 277.5,160C 280.119,160.083 282.786,160.25 285.5,160.5 Z"/></g>
<g><path style="opacity:0.996" fill="#c0c0c0" d="M 273.5,156.5 C 272.043,158.785 270.043,160.618 267.5,162C 256.237,168.269 245.237,174.936 234.5,182C 231.794,183.908 228.794,184.741 225.5,184.5C 241.164,174.665 257.164,165.332 273.5,156.5 Z"/></g>
<g><path style="opacity:0.999" fill="#6d6d6d" d="M 432.5,190.5 C 423.203,196.152 413.869,201.819 404.5,207.5C 402.95,208.441 401.284,209.107 399.5,209.5C 393.206,212.832 386.873,212.999 380.5,210C 377.833,207.667 375.167,205.333 372.5,203C 370.613,202.22 368.946,202.387 367.5,203.5C 362.797,200.486 358.13,197.486 353.5,194.5C 353.5,194.167 353.5,193.833 353.5,193.5C 352.91,192.234 352.41,190.901 352,189.5C 343.456,182.732 334.289,175.899 324.5,169C 326.366,168.015 328.366,167.515 330.5,167.5C 344.791,169.446 358.291,173.78 371,180.5C 383.292,186.092 395.626,191.759 408,197.5C 408.333,196.833 408.667,196.167 409,195.5C 417.123,195.741 424.623,193.407 431.5,188.5C 431.787,189.2 432.12,189.867 432.5,190.5 Z"/></g>
<g><path style="opacity:1" fill="#a9a9a9" d="M 285.5,160.5 C 282.786,160.25 280.119,160.083 277.5,160C 274.165,162.778 270.831,165.278 267.5,167.5C 266.07,167.421 264.736,167.754 263.5,168.5C 250.296,176.264 237.296,184.264 224.5,192.5C 222.5,192.167 220.5,191.833 218.5,191.5C 218.167,210.179 218.5,228.845 219.5,247.5C 220.425,248.357 221.092,249.357 221.5,250.5C 219.983,250.489 218.816,249.823 218,248.5C 217.333,228.833 217.333,209.167 218,189.5C 220.099,187.203 222.599,185.536 225.5,184.5C 228.794,184.741 231.794,183.908 234.5,182C 245.237,174.936 256.237,168.269 267.5,162C 270.043,160.618 272.043,158.785 273.5,156.5C 273.866,155.305 274.699,154.639 276,154.5C 279.468,156.144 282.635,158.144 285.5,160.5 Z"/></g>
<g><path style="opacity:0.128" fill="#f7f7f7" d="M 314.5,169.5 C 327.5,177.5 340.5,185.5 353.5,193.5C 353.5,193.833 353.5,194.167 353.5,194.5C 351.983,194.511 350.816,195.177 350,196.5C 348.261,194.259 346.094,192.592 343.5,191.5C 343.167,191.833 342.833,192.167 342.5,192.5C 345.777,195.626 348.777,198.959 351.5,202.5C 349.938,202.267 348.605,201.6 347.5,200.5C 337.5,194.167 327.5,187.833 317.5,181.5C 317.5,181.167 317.5,180.833 317.5,180.5C 318.695,180.134 319.361,179.301 319.5,178C 318.021,175.029 316.355,172.196 314.5,169.5 Z"/></g>
<g><path style="opacity:1" fill="#9f9f9f" d="M 267.5,167.5 C 258.819,173.601 249.986,179.601 241,185.5C 240.383,186.449 240.549,187.282 241.5,188C 245.906,187.176 250.406,186.343 255,185.5C 255.772,185.645 256.439,185.978 257,186.5C 269.189,183.244 281.356,179.911 293.5,176.5C 298.593,176.814 303.259,178.314 307.5,181C 314.516,186.788 321.849,192.121 329.5,197C 330.793,197.49 332.127,197.657 333.5,197.5C 337.965,197.989 342.131,199.323 346,201.5C 346.765,201.43 347.265,201.097 347.5,200.5C 348.605,201.6 349.938,202.267 351.5,202.5C 355.372,204.597 359.039,206.931 362.5,209.5C 361.761,209.369 361.094,209.536 360.5,210C 361.071,211.205 361.738,212.372 362.5,213.5C 366.877,215.439 371.044,217.772 375,220.5C 375.667,221.167 375.667,221.833 375,222.5C 373.482,223.163 372.315,224.163 371.5,225.5C 370.341,227.25 368.674,228.25 366.5,228.5C 367.8,227.173 369.133,225.84 370.5,224.5C 354.224,214.24 338.224,204.407 322.5,195C 318.859,193.731 315.192,192.564 311.5,191.5C 302.607,193.48 293.607,195.98 284.5,199C 275.593,202.648 266.593,206.148 257.5,209.5C 256.188,208.54 254.854,208.706 253.5,210C 256.001,212.715 259.001,214.715 262.5,216C 263.823,216.816 264.489,217.983 264.5,219.5C 260.317,217.913 256.65,215.579 253.5,212.5C 243.854,205.863 234.188,199.196 224.5,192.5C 237.296,184.264 250.296,176.264 263.5,168.5C 264.736,167.754 266.07,167.421 267.5,167.5 Z"/></g>
<g><path style="opacity:1" fill="#8a8a8a" d="M 224.5,192.5 C 234.188,199.196 243.854,205.863 253.5,212.5C 242.721,206.942 232.388,200.608 222.5,193.5C 222.167,194 221.833,194.5 221.5,195C 222.147,212.145 222.813,229.312 223.5,246.5C 254.173,265.501 284.506,285.001 314.5,305C 318.619,307.726 322.952,309.893 327.5,311.5C 327.334,306.156 327.501,300.823 328,295.5C 328.333,302.5 328.667,309.5 329,316.5C 330.699,317.406 332.533,317.739 334.5,317.5C 334.389,318.117 334.056,318.617 333.5,319C 331.5,319.667 329.5,319.667 327.5,319C 323.655,316.637 319.989,314.137 316.5,311.5C 315.952,309.468 314.619,308.468 312.5,308.5C 310.188,303.492 306.188,300.659 300.5,300C 283.289,288.568 266.289,276.901 249.5,265C 247.187,264.338 244.854,263.838 242.5,263.5C 234.989,259.915 227.989,255.582 221.5,250.5C 221.092,249.357 220.425,248.357 219.5,247.5C 218.5,228.845 218.167,210.179 218.5,191.5C 220.5,191.833 222.5,192.167 224.5,192.5 Z"/></g>
<g><path style="opacity:1" fill="#7e7e7e" d="M 317.5,181.5 C 327.5,187.833 337.5,194.167 347.5,200.5C 347.265,201.097 346.765,201.43 346,201.5C 342.131,199.323 337.965,197.989 333.5,197.5C 330.205,193.752 326.038,191.085 321,189.5C 319.689,186.914 318.189,184.414 316.5,182C 316.728,181.601 317.062,181.435 317.5,181.5 Z"/></g>
<g><path style="opacity:0.999" fill="#818181" d="M 253.5,212.5 C 256.65,215.579 260.317,217.913 264.5,219.5C 265.391,218.89 266.391,218.557 267.5,218.5C 267.196,219.15 266.863,219.817 266.5,220.5C 267.867,221.84 269.2,223.173 270.5,224.5C 288.768,236.643 307.101,248.81 325.5,261C 327.025,262.009 328.692,262.509 330.5,262.5C 329.182,280.102 329.182,297.769 330.5,315.5C 331.086,315.709 331.586,316.043 332,316.5C 336.364,313.304 340.864,310.304 345.5,307.5C 346.167,307.833 346.833,308.167 347.5,308.5C 358.324,301.586 369.324,294.919 380.5,288.5C 381.107,288.624 381.44,288.957 381.5,289.5C 366.007,299.082 350.34,308.415 334.5,317.5C 332.533,317.739 330.699,317.406 329,316.5C 328.667,309.5 328.333,302.5 328,295.5C 327.501,300.823 327.334,306.156 327.5,311.5C 322.952,309.893 318.619,307.726 314.5,305C 284.506,285.001 254.173,265.501 223.5,246.5C 222.813,229.312 222.147,212.145 221.5,195C 221.833,194.5 222.167,194 222.5,193.5C 232.388,200.608 242.721,206.942 253.5,212.5 Z"/></g>
<g><path style="opacity:0.449" fill="#afafaf" d="M 446.5,251.5 C 446.833,232.821 446.5,214.155 445.5,195.5C 442.852,197.658 439.852,198.992 436.5,199.5C 439.262,197.275 442.262,195.275 445.5,193.5C 446.086,193.709 446.586,194.043 447,194.5C 447.829,213.671 447.662,232.671 446.5,251.5 Z"/></g>
<g><path style="opacity:0.997" fill="#727272" d="M 446.5,251.5 C 425.005,264.416 403.339,277.082 381.5,289.5C 381.44,288.957 381.107,288.624 380.5,288.5C 369.324,294.919 358.324,301.586 347.5,308.5C 346.833,308.167 346.167,307.833 345.5,307.5C 340.864,310.304 336.364,313.304 332,316.5C 331.586,316.043 331.086,315.709 330.5,315.5C 329.182,297.769 329.182,280.102 330.5,262.5C 330.833,262.5 331.167,262.5 331.5,262.5C 331.333,279.837 331.5,297.17 332,314.5C 337.369,308.9 343.535,304.4 350.5,301C 377.427,285.732 404.093,270.065 430.5,254C 434.444,251.859 438.444,250.025 442.5,248.5C 442.667,232.163 442.5,215.83 442,199.5C 440.167,202.667 437.667,205.167 434.5,207C 427.535,210.149 420.868,213.815 414.5,218C 411.942,218.275 409.608,217.775 407.5,216.5C 407.5,216.167 407.5,215.833 407.5,215.5C 417.033,209.901 426.7,204.567 436.5,199.5C 439.852,198.992 442.852,197.658 445.5,195.5C 446.5,214.155 446.833,232.821 446.5,251.5 Z"/></g>
<g><path style="opacity:0.999" fill="#696969" d="M 331.5,262.5 C 343.368,255.737 355.035,248.737 366.5,241.5C 376.126,234.681 386.126,228.347 396.5,222.5C 400.167,220.5 403.833,218.5 407.5,216.5C 409.608,217.775 411.942,218.275 414.5,218C 420.868,213.815 427.535,210.149 434.5,207C 437.667,205.167 440.167,202.667 442,199.5C 442.5,215.83 442.667,232.163 442.5,248.5C 438.444,250.025 434.444,251.859 430.5,254C 404.093,270.065 377.427,285.732 350.5,301C 343.535,304.4 337.369,308.9 332,314.5C 331.5,297.17 331.333,279.837 331.5,262.5 Z"/></g>
<g><path style="opacity:0.991" fill="#aeaeae" d="M 366.5,228.5 C 364.445,229.559 363.111,231.225 362.5,233.5C 360.226,236.115 357.892,238.782 355.5,241.5C 355.747,242.713 356.414,243.38 357.5,243.5C 358.151,242.909 358.818,242.243 359.5,241.5C 360.086,241.709 360.586,242.043 361,242.5C 361.419,241.328 362.085,240.328 363,239.5C 363.71,240.973 364.876,241.64 366.5,241.5C 355.035,248.737 343.368,255.737 331.5,262.5C 331.167,262.5 330.833,262.5 330.5,262.5C 328.692,262.509 327.025,262.009 325.5,261C 307.101,248.81 288.768,236.643 270.5,224.5C 273.721,225.709 276.721,227.376 279.5,229.5C 280.183,229.137 280.85,228.804 281.5,228.5C 284.838,229.335 287.504,231.168 289.5,234C 292.826,235.913 296.326,237.413 300,238.5C 301.301,240.155 302.801,241.489 304.5,242.5C 305.167,243.167 305.833,243.833 306.5,244.5C 307.209,245.404 308.209,245.737 309.5,245.5C 310.167,245.5 310.5,245.833 310.5,246.5C 311.209,247.404 312.209,247.737 313.5,247.5C 314.167,247.5 314.5,247.833 314.5,248.5C 313.527,249.791 312.527,249.791 311.5,248.5C 310.304,248.846 310.304,249.346 311.5,250C 317.431,254.215 323.598,258.049 330,261.5C 333.95,259.78 337.45,257.446 340.5,254.5C 340.043,253.702 339.376,253.369 338.5,253.5C 340.662,252.872 342.328,251.539 343.5,249.5C 343.833,249.5 344.167,249.5 344.5,249.5C 345.598,248.399 345.765,247.066 345,245.5C 344.722,246.416 344.222,247.082 343.5,247.5C 342.571,246.685 341.571,245.852 340.5,245C 341.833,244 343.167,243 344.5,242C 340.524,243.482 336.524,245.315 332.5,247.5C 329.078,244.71 328.411,244.877 330.5,248C 328.65,248.69 327.316,249.856 326.5,251.5C 326.5,250.833 326.5,250.167 326.5,249.5C 325.329,248.655 323.995,247.989 322.5,247.5C 320.102,247.741 318.102,247.074 316.5,245.5C 315.179,243.778 314.179,242.111 313.5,240.5C 312.833,240.5 312.167,240.5 311.5,240.5C 311.5,239.833 311.167,239.5 310.5,239.5C 310.5,238.833 310.167,238.5 309.5,238.5C 309.5,238.167 309.5,237.833 309.5,237.5C 309.938,237.565 310.272,237.399 310.5,237C 309.833,235.667 309.167,234.333 308.5,233C 300.805,228.156 293.139,223.323 285.5,218.5C 283.611,217.396 281.945,216.063 280.5,214.5C 277.623,211.873 274.956,212.206 272.5,215.5C 271.101,216.89 269.434,217.89 267.5,218.5C 266.391,218.557 265.391,218.89 264.5,219.5C 264.489,217.983 263.823,216.816 262.5,216C 259.001,214.715 256.001,212.715 253.5,210C 254.854,208.706 256.188,208.54 257.5,209.5C 266.593,206.148 275.593,202.648 284.5,199C 293.607,195.98 302.607,193.48 311.5,191.5C 315.192,192.564 318.859,193.731 322.5,195C 338.224,204.407 354.224,214.24 370.5,224.5C 369.133,225.84 367.8,227.173 366.5,228.5 Z M 311.5,240.5 C 312.167,240.5 312.833,240.5 313.5,240.5C 313.167,241.5 312.5,242.167 311.5,242.5C 311.5,241.833 311.5,241.167 311.5,240.5 Z M 306.5,244.5 C 306.639,242.663 307.306,242.33 308.5,243.5C 308.043,244.298 307.376,244.631 306.5,244.5 Z M 351.5,242.5 C 354.957,242.667 355.29,243.667 352.5,245.5C 351.614,244.675 351.281,243.675 351.5,242.5 Z M 311.5,243.5 C 312.885,244.947 312.552,245.947 310.5,246.5C 310.5,245.833 310.167,245.5 309.5,245.5C 310.167,244.833 310.833,244.167 311.5,243.5 Z M 316.5,245.5 C 318.102,247.074 320.102,247.741 322.5,247.5C 322.5,248.167 322.5,248.833 322.5,249.5C 320.435,249.483 318.435,249.15 316.5,248.5C 315.833,248.5 315.167,248.5 314.5,248.5C 314.5,247.833 314.167,247.5 313.5,247.5C 313.402,244.752 314.402,244.086 316.5,245.5 Z M 344.5,249.5 C 344.167,248.833 343.833,248.167 343.5,247.5C 344.222,247.082 344.722,246.416 345,245.5C 345.765,247.066 345.598,248.399 344.5,249.5 Z M 339.5,248.5 C 340.959,248.433 342.292,248.766 343.5,249.5C 342.328,251.539 340.662,252.872 338.5,253.5C 336.314,254.965 333.981,255.298 331.5,254.5C 333.924,252.062 336.591,250.062 339.5,248.5 Z"/></g>
<g><path style="opacity:0.024" fill="#f6f6f6" d="M 367.5,203.5 C 374.64,207.572 381.64,211.905 388.5,216.5C 392.401,214.392 396.067,212.059 399.5,209.5C 401.284,209.107 402.95,208.441 404.5,207.5C 404.018,210.831 405.018,213.497 407.5,215.5C 407.5,215.833 407.5,216.167 407.5,216.5C 403.833,218.5 400.167,220.5 396.5,222.5C 393.794,222.575 391.127,222.908 388.5,223.5C 392.371,221.589 396.371,219.756 400.5,218C 401.357,217.311 402.023,216.478 402.5,215.5C 398.233,215.081 394.233,216.248 390.5,219C 389.167,219.667 387.833,219.667 386.5,219C 381.36,214.262 375.693,210.262 369.5,207C 368.177,206.184 367.511,205.017 367.5,203.5 Z"/></g>
<g><path style="opacity:0.938" fill="#545454" d="M 367.5,203.5 C 368.946,202.387 370.613,202.22 372.5,203C 375.167,205.333 377.833,207.667 380.5,210C 386.873,212.999 393.206,212.832 399.5,209.5C 396.067,212.059 392.401,214.392 388.5,216.5C 381.64,211.905 374.64,207.572 367.5,203.5 Z"/></g>
<g><path style="opacity:0.302" fill="#5e5e5e" d="M 280.5,214.5 C 277.756,213.509 275.089,213.843 272.5,215.5C 274.956,212.206 277.623,211.873 280.5,214.5 Z"/></g>
<g><path style="opacity:0.016" fill="#f6f6f6" d="M 280.5,214.5 C 281.945,216.063 283.611,217.396 285.5,218.5C 285.461,219.583 285.127,220.583 284.5,221.5C 286.698,223.098 289.031,224.431 291.5,225.5C 291.84,227.679 292.84,229.512 294.5,231C 292.7,231.236 291.034,230.736 289.5,229.5C 288.998,228.284 288.665,227.117 288.5,226C 285.922,224.217 283.089,223.051 280,222.5C 276.666,225.342 277.166,227.342 281.5,228.5C 280.85,228.804 280.183,229.137 279.5,229.5C 276.721,227.376 273.721,225.709 270.5,224.5C 269.2,223.173 267.867,221.84 266.5,220.5C 266.863,219.817 267.196,219.15 267.5,218.5C 269.434,217.89 271.101,216.89 272.5,215.5C 275.089,213.843 277.756,213.509 280.5,214.5 Z"/></g>
<g><path style="opacity:0.63" fill="#757575" d="M 362.5,209.5 C 367.95,213.108 373.283,216.942 378.5,221C 376.819,223.508 374.486,225.008 371.5,225.5C 372.315,224.163 373.482,223.163 375,222.5C 375.667,221.833 375.667,221.167 375,220.5C 371.044,217.772 366.877,215.439 362.5,213.5C 361.738,212.372 361.071,211.205 360.5,210C 361.094,209.536 361.761,209.369 362.5,209.5 Z"/></g>
<g><path style="opacity:0.041" fill="#d7d7d7" d="M 285.5,218.5 C 293.139,223.323 300.805,228.156 308.5,233C 309.167,234.333 309.833,235.667 310.5,237C 310.272,237.399 309.938,237.565 309.5,237.5C 303.912,233.028 297.912,229.028 291.5,225.5C 289.031,224.431 286.698,223.098 284.5,221.5C 285.127,220.583 285.461,219.583 285.5,218.5 Z"/></g>
<g><path style="opacity:0.118" fill="#e2e2e2" d="M 382.5,225.5 C 381.127,225.343 379.793,225.51 378.5,226C 373.224,228.807 367.891,231.307 362.5,233.5C 363.111,231.225 364.445,229.559 366.5,228.5C 368.674,228.25 370.341,227.25 371.5,225.5C 374.486,225.008 376.819,223.508 378.5,221C 373.283,216.942 367.95,213.108 362.5,209.5C 363.496,209.586 364.329,209.252 365,208.5C 371.146,212.817 376.98,217.484 382.5,222.5C 381.209,223.527 381.209,224.527 382.5,225.5 Z"/></g>
<g><path style="opacity:0.004" fill="#fafafa" d="M 309.5,238.5 C 310.167,238.5 310.5,238.833 310.5,239.5C 311.167,239.5 311.5,239.833 311.5,240.5C 311.5,241.167 311.5,241.833 311.5,242.5C 310.167,242.833 310.167,243.167 311.5,243.5C 310.833,244.167 310.167,244.833 309.5,245.5C 308.209,245.737 307.209,245.404 306.5,244.5C 305.833,243.833 305.167,243.167 304.5,242.5C 305.591,240.466 307.257,239.132 309.5,238.5 Z M 306.5,244.5 C 307.376,244.631 308.043,244.298 308.5,243.5C 307.306,242.33 306.639,242.663 306.5,244.5 Z"/></g>
<g><path style="opacity:0.264" fill="#d1d1d1" d="M 396.5,222.5 C 386.126,228.347 376.126,234.681 366.5,241.5C 364.876,241.64 363.71,240.973 363,239.5C 362.085,240.328 361.419,241.328 361,242.5C 360.586,242.043 360.086,241.709 359.5,241.5C 358.818,242.243 358.151,242.909 357.5,243.5C 357.33,242.178 357.663,241.011 358.5,240C 361.833,239 365.167,238 368.5,237C 372.06,233.616 376.06,230.783 380.5,228.5C 381.425,227.643 382.092,226.643 382.5,225.5C 384.858,225.747 386.858,225.081 388.5,223.5C 391.127,222.908 393.794,222.575 396.5,222.5 Z"/></g>
<g><path style="opacity:0.004" fill="#fefffe" d="M 313.5,240.5 C 314.179,242.111 315.179,243.778 316.5,245.5C 314.402,244.086 313.402,244.752 313.5,247.5C 312.209,247.737 311.209,247.404 310.5,246.5C 312.552,245.947 312.885,244.947 311.5,243.5C 311.5,243.167 311.5,242.833 311.5,242.5C 312.5,242.167 313.167,241.5 313.5,240.5 Z"/></g>
<g><path style="opacity:0.004" fill="#fefffe" d="M 322.5,247.5 C 323.995,247.989 325.329,248.655 326.5,249.5C 325.167,250.167 325.167,250.833 326.5,251.5C 326.5,252.5 326.5,253.5 326.5,254.5C 325.127,254.657 323.793,254.49 322.5,254C 323.044,253.283 323.711,252.783 324.5,252.5C 324.715,250.821 324.048,249.821 322.5,249.5C 322.5,248.833 322.5,248.167 322.5,247.5 Z"/></g>
<g><path style="opacity:0.004" fill="#fefffe" d="M 339.5,248.5 C 340.568,247.566 341.901,247.232 343.5,247.5C 343.833,248.167 344.167,248.833 344.5,249.5C 344.167,249.5 343.833,249.5 343.5,249.5C 342.292,248.766 340.959,248.433 339.5,248.5 Z"/></g>
<g><path style="opacity:0.203" fill="#8a8a8a" d="M 343.5,247.5 C 341.901,247.232 340.568,247.566 339.5,248.5C 336.591,250.062 333.924,252.062 331.5,254.5C 333.981,255.298 336.314,254.965 338.5,253.5C 339.376,253.369 340.043,253.702 340.5,254.5C 337.45,257.446 333.95,259.78 330,261.5C 323.598,258.049 317.431,254.215 311.5,250C 310.304,249.346 310.304,248.846 311.5,248.5C 312.527,249.791 313.527,249.791 314.5,248.5C 315.167,248.5 315.833,248.5 316.5,248.5C 317.985,252.008 319.985,252.342 322.5,249.5C 324.048,249.821 324.715,250.821 324.5,252.5C 323.711,252.783 323.044,253.283 322.5,254C 323.793,254.49 325.127,254.657 326.5,254.5C 326.5,253.5 326.5,252.5 326.5,251.5C 327.316,249.856 328.65,248.69 330.5,248C 328.411,244.877 329.078,244.71 332.5,247.5C 336.524,245.315 340.524,243.482 344.5,242C 343.167,243 341.833,244 340.5,245C 341.571,245.852 342.571,246.685 343.5,247.5 Z"/></g>
<g><path style="opacity:0.004" fill="#fefffe" d="M 316.5,248.5 C 318.435,249.15 320.435,249.483 322.5,249.5C 319.985,252.342 317.985,252.008 316.5,248.5 Z"/></g>
<g><path style="opacity:0.904" fill="#979797" d="M 242.5,263.5 C 244.854,263.838 247.187,264.338 249.5,265C 266.289,276.901 283.289,288.568 300.5,300C 306.188,300.659 310.188,303.492 312.5,308.5C 314.619,308.468 315.952,309.468 316.5,311.5C 291.484,295.995 266.818,279.995 242.5,263.5 Z"/></g>
</svg>
